<svg width="13" height="13" viewBox="0 0 13 13" fill="none" xmlns="http://www.w3.org/2000/svg">
<path d="M1 12.001H1.73333L9.11667 4.61764L8.38333 3.8843L1 11.2676V12.001ZM11.2333 3.90097L9.1 1.76764L9.8 1.06764C9.98889 0.878746 10.2222 0.784302 10.5 0.784302C10.7778 0.784302 11.0111 0.878746 11.2 1.06764L11.9333 1.80097C12.1222 1.98986 12.2167 2.22319 12.2167 2.50097C12.2167 2.77875 12.1222 3.01208 11.9333 3.20097L11.2333 3.90097ZM10.5333 4.60097L2.13333 13.001H0V10.8676L8.4 2.46764L10.5333 4.60097ZM8.75 4.25097L8.38333 3.8843L9.11667 4.61764L8.75 4.25097Z" fill="#8E4DFF" fillOpacity="0.87"/>
</svg>
