<svg width="14" height="12" viewBox="0 0 14 12" fill="none" xmlns="http://www.w3.org/2000/svg">
<path d="M5.66683 5.9165C4.9335 5.9165 4.3335 5.68317 3.86683 5.2165C3.40016 4.74984 3.16683 4.14984 3.16683 3.4165C3.16683 2.68317 3.40016 2.08317 3.86683 1.6165C4.3335 1.14984 4.9335 0.916504 5.66683 0.916504C6.40016 0.916504 7.00016 1.14984 7.46683 1.6165C7.9335 2.08317 8.16683 2.68317 8.16683 3.4165C8.16683 4.14984 7.9335 4.74984 7.46683 5.2165C7.00016 5.68317 6.40016 5.9165 5.66683 5.9165ZM0.333496 11.2665V9.69984C0.333496 9.31095 0.430718 8.96095 0.625163 8.64984C0.819607 8.33873 1.10016 8.09984 1.46683 7.93317C2.26683 7.57761 3.0085 7.32206 3.69183 7.1665C4.37516 7.01095 5.0335 6.93317 5.66683 6.93317H6.05016C5.9835 7.08873 5.9335 7.2415 5.90016 7.3915C5.86683 7.5415 5.83905 7.72206 5.81683 7.93317H5.66683C5.02239 7.93317 4.39183 8.00261 3.77516 8.1415C3.1585 8.28039 2.52239 8.51095 1.86683 8.83317C1.68905 8.92206 1.55572 9.04706 1.46683 9.20817C1.37794 9.36928 1.3335 9.53317 1.3335 9.69984V10.2665H5.81683C5.87239 10.4665 5.93905 10.6471 6.01683 10.8082C6.09461 10.9693 6.18905 11.1221 6.30016 11.2665H0.333496ZM10.1168 11.9998L9.95016 10.8998C9.76127 10.8443 9.56961 10.7637 9.37516 10.6582C9.18072 10.5526 9.01683 10.4332 8.8835 10.2998L7.96683 10.4998L7.55016 9.79984L8.3335 9.0665C8.31127 8.9665 8.30016 8.82761 8.30016 8.64984C8.30016 8.47206 8.31127 8.33317 8.3335 8.23317L7.55016 7.49984L7.96683 6.79984L8.8835 6.99984C9.01683 6.8665 9.18072 6.74706 9.37516 6.6415C9.56961 6.53595 9.76127 6.45539 9.95016 6.39984L10.1168 5.29984H11.0168L11.1835 6.39984C11.3724 6.45539 11.5641 6.53595 11.7585 6.6415C11.9529 6.74706 12.1168 6.8665 12.2502 6.99984L13.1668 6.79984L13.5835 7.49984L12.8002 8.23317C12.8224 8.33317 12.8335 8.47206 12.8335 8.64984C12.8335 8.82761 12.8224 8.9665 12.8002 9.0665L13.5835 9.79984L13.1668 10.4998L12.2502 10.2998C12.1168 10.4332 11.9529 10.5526 11.7585 10.6582C11.5641 10.7637 11.3724 10.8443 11.1835 10.8998L11.0168 11.9998H10.1168ZM10.5668 9.98317C10.9668 9.98317 11.2891 9.86095 11.5335 9.6165C11.7779 9.37206 11.9002 9.04984 11.9002 8.64984C11.9002 8.24984 11.7779 7.92761 11.5335 7.68317C11.2891 7.43873 10.9668 7.3165 10.5668 7.3165C10.1668 7.3165 9.84461 7.43873 9.60016 7.68317C9.35572 7.92761 9.2335 8.24984 9.2335 8.64984C9.2335 9.04984 9.35572 9.37206 9.60016 9.6165C9.84461 9.86095 10.1668 9.98317 10.5668 9.98317ZM5.66683 4.9165C6.10016 4.9165 6.4585 4.77484 6.74183 4.4915C7.02516 4.20817 7.16683 3.84984 7.16683 3.4165C7.16683 2.98317 7.02516 2.62484 6.74183 2.3415C6.4585 2.05817 6.10016 1.9165 5.66683 1.9165C5.2335 1.9165 4.87516 2.05817 4.59183 2.3415C4.3085 2.62484 4.16683 2.98317 4.16683 3.4165C4.16683 3.84984 4.3085 4.20817 4.59183 4.4915C4.87516 4.77484 5.2335 4.9165 5.66683 4.9165Z" fill="white" fillOpacity="0.87"/>
</svg>
